<svg data-v-fde0c5aa="" xmlns="http://www.w3.org/2000/svg" viewBox="0 0 300 300" class="iconLeft"><!----><defs data-v-fde0c5aa=""><!----></defs><rect data-v-fde0c5aa="" fill="#F6E7DC" x="0" y="0" width="300px" height="300px" class="logo-background-square"></rect><defs data-v-fde0c5aa=""><!----></defs><g data-v-fde0c5aa="" id="4f3b469b-960d-4277-9009-f5c04b85e2c2" fill="#2B1200" transform="matrix(3.350968550411028,0,0,3.350968550411028,85.04593964480924,132.52272333578347)"><path d="M5.39 5.36C6.44 5.19 7.08 4.47 7.08 3.40C7.08 1.95 5.67 1.04 3.36 1.04C1.79 1.04 0.81 1.33 0.81 1.78L0.81 9.31C0.81 9.74 1.88 10.05 3.54 10.05C5.91 10.05 7.35 9.09 7.35 7.48C7.35 6.26 6.61 5.50 5.39 5.36ZM3.51 2.41C4.80 2.41 5.43 2.77 5.43 3.54C5.43 4.33 4.80 4.72 3.54 4.72L2.46 4.72L2.46 2.49C2.72 2.44 3.07 2.41 3.51 2.41ZM3.75 8.67C3.18 8.67 2.73 8.62 2.45 8.55L2.45 6.08L3.57 6.08C4.98 6.08 5.70 6.48 5.70 7.38C5.70 8.26 5.05 8.67 3.75 8.67ZM12.52 3.43C11.42 3.46 10.61 3.88 10.08 4.54L9.87 3.68C9.77 3.29 8.44 3.28 8.44 3.81L8.44 9.63C8.44 10.19 10.09 10.19 10.09 9.63L10.09 5.94C10.74 5.25 11.40 5.04 12.21 5.00C12.70 4.98 13.03 3.42 12.52 3.43ZM19.57 6.23C19.57 4.38 18.55 3.37 16.51 3.37C14.38 3.37 13.27 4.66 13.27 6.66C13.27 9.04 14.99 10.04 16.72 10.04C17.50 10.04 18.24 9.83 18.89 9.42C19.28 9.17 19.28 8.02 18.76 8.25C18.05 8.57 17.43 8.75 16.84 8.75C15.86 8.75 14.95 8.27 14.92 7.28C15.30 7.34 15.72 7.36 16.10 7.36C17.86 7.36 19.57 6.89 19.57 6.23ZM14.95 6.10C14.97 5.03 15.68 4.62 16.58 4.62C17.56 4.62 18.07 5.08 18.07 5.77C18.07 5.98 17.16 6.16 16.00 6.16C15.67 6.16 15.32 6.15 14.95 6.10ZM28.15 3.78C27.83 5.25 27.45 6.58 26.85 8.01C26.28 6.57 25.90 5.25 25.56 3.78C25.47 3.26 23.67 3.26 23.81 3.78L24.09 4.72C23.81 5.82 23.46 6.90 22.99 8.01C22.41 6.55 22.02 5.25 21.70 3.78C21.60 3.26 19.81 3.26 19.95 3.78C20.58 6.06 21.92 9.27 22.47 9.87C22.71 10.12 23.30 10.12 23.53 9.87C23.94 9.39 24.42 8.19 24.85 6.82C25.41 8.26 26.01 9.52 26.32 9.87C26.57 10.12 27.15 10.11 27.41 9.87C27.96 9.28 29.27 6.06 29.92 3.78C30.06 3.26 28.27 3.26 28.15 3.78ZM36.58 8.53L32.65 8.53L32.65 1.20C32.65 0.55 31.02 1.25 31.02 1.90L31.02 9.35C31.02 9.65 31.11 9.95 31.33 9.95L36.58 9.95C37.13 9.95 37.13 8.53 36.58 8.53ZM44.55 8.48C44.44 8.53 44.34 8.54 44.24 8.54C43.97 8.54 43.83 8.33 43.83 7.76L43.83 6.03C43.83 4.05 42.74 3.37 41.03 3.37C39.62 3.37 38.79 3.65 38.21 4.14C37.74 4.51 37.84 5.56 38.32 5.26C38.89 4.93 39.66 4.69 40.53 4.69C41.71 4.69 42.20 5.08 42.20 6.24L42.20 6.31C41.76 6.09 41.12 5.95 40.22 5.95C38.72 5.95 37.76 6.76 37.76 8.01C37.76 9.25 38.67 10.05 40.07 10.05C41.15 10.05 41.90 9.66 42.36 9.24C42.59 9.81 43.01 10.02 43.50 10.02C43.83 10.02 44.20 9.93 44.55 9.79C45.15 9.53 45.15 8.26 44.55 8.48ZM40.52 8.75C39.70 8.75 39.41 8.37 39.41 7.97C39.41 7.55 39.73 7.15 40.60 7.15C41.41 7.15 41.94 7.29 42.20 7.48L42.20 8.04C41.94 8.34 41.38 8.75 40.52 8.75ZM49.71 3.37C48.86 3.37 48.08 3.64 47.50 4.12L47.50 0.66C47.50 0 45.86 0.60 45.86 1.26L45.86 9.66C45.86 10.19 47.07 10.15 47.22 9.76L47.43 9.20C48.01 9.72 48.82 10.04 49.71 10.04C51.21 10.04 52.21 8.72 52.21 6.69C52.21 4.70 51.21 3.37 49.71 3.37ZM49.00 8.61C48.45 8.61 47.94 8.37 47.50 7.92L47.50 5.46C47.95 5.04 48.45 4.82 49.00 4.82C50.04 4.80 50.57 5.46 50.57 6.69C50.57 7.97 50.04 8.62 49.00 8.61Z"></path></g><defs data-v-fde0c5aa=""><linearGradient data-v-fde0c5aa="" gradientTransform="rotate(25)" id="c787c224-c87f-4e61-b766-15b285ae2cab" x1="0%" y1="0%" x2="100%" y2="0%"><stop data-v-fde0c5aa="" offset="0%" stop-color="#792300" stop-opacity="1"></stop><stop data-v-fde0c5aa="" offset="100%" stop-color="#F37000" stop-opacity="1"></stop></linearGradient></defs><g data-v-fde0c5aa="" id="35d380b0-db3d-4bae-b3ba-730152109c18" stroke="none" fill="url(#c787c224-c87f-4e61-b766-15b285ae2cab)" transform="matrix(1.5211019765551337,0,0,1.5211019765551337,33.04247973911567,125.66236837511786)"><path d="M27.377 11.377L16 0 4.623 11.377 16 22.753l11.377-11.376zM16 6.026l5.35 5.35L16 16.727l-5.35-5.35L16 6.026zM27.426 14.969l-5.664 5.664V32h5.664zM10.238 20.633l-5.664-5.664V32h5.664z"></path></g><!----></svg>