<svg version="1.1" xmlns="http://www.w3.org/2000/svg" viewBox="-2303.4 -1527.7 7070.599999999999 2333.4"><desc>Created with Snap</desc><defs></defs><g><g transform="matrix(53.7188,0,0,53.7188,-1996.2,-1220.5)"><g display="none"><rect x="-69.333" y="-18.667" display="inline" fill="#0560af" width="473.333" height="236" style=""></rect></g><g display="none"><g display="inline"><g><polygon fill="#0560af" points="32,31.952 0,31.952 0,0.048    " style=""></polygon></g><g><polygon fill="#0560af" points="23.347,23.325 8.653,23.325 8.653,8.675    " style=""></polygon></g></g><g display="inline"><g><polygon fill="#0560af" points="0,0.048 32,0.048 32,31.952    " style=""></polygon></g><g><polygon fill="#0560af" points="8.653,8.675 23.347,8.675 23.347,23.325    " style=""></polygon></g></g></g><g display="none"><g display="inline"><rect x="8.675" y="8.675" fill="#0560af" stroke="#0560af" stroke-miterlimit="10" width="14.65" height="14.65" style=""></rect><rect x="0.5" y="0.326" fill="#0560af" stroke="#0560af" stroke-miterlimit="10" width="31" height="31.348" style=""></rect><line fill="#0560af" stroke="#0560af" stroke-miterlimit="10" x1="0.413" y1="0.413" x2="31.587" y2="31.587" style=""></line></g></g><g display="none"><rect x="0.5" y="0.326" display="inline" fill="#0560af" stroke="#0560af" stroke-miterlimit="10" width="31" height="31.348" style=""></rect><rect x="8.675" y="8.675" display="inline" fill="#0560af" stroke="#0560af" stroke-miterlimit="10" width="14.65" height="14.65" style=""></rect><line display="inline" fill="#0560af" stroke="#0560af" stroke-miterlimit="10" x1="0.413" y1="0.413" x2="31.587" y2="31.587" style=""></line></g><g><g><polygon points="9.382,8.675 23.325,8.675 23.325,22.618 32,31.293 32,0 0.707,0   " fill="#0560af" style=""></polygon><polygon points="22.618,23.325 8.675,23.325 8.675,9.382 0,0.707 0,32 31.293,32   " fill="#0560af" style=""></polygon></g></g><desc>Created with Snap</desc><defs></defs></g><g><g transform="matrix(1,0,0,-1,0,0)"><path d="M65 664Q139 680 205 680Q271 680 322 675Q374 670 426 656Q536 625 562 572Q569 561 569 546Q569 502 492 451Q441 417 346 382Q579 369 662 314Q708 285 708 246Q708 192 632 134Q549 72 420 31Q301 -7 199 -7Q121 -7 65 16Q63 80 60 148Q52 299 52 402Q52 506 59 618Q48 618 39 620Q30 623 30 640Q30 664 65 664ZM131 299L155 66Q316 75 419 104Q522 134 567 168Q613 203 613 235Q613 277 553 302Q488 328 380 328Q273 328 131 299ZM248 615L223 615Q141 615 131 598L121 397Q211 397 340 440Q424 469 463 504Q483 522 483 541Q483 560 468 572Q454 585 431 593Q409 601 381 605Q354 610 328 612Q288 615 248 615ZM1246 365Q1204 395 1138 395Q1076 395 1023 372Q923 330 886 264Q870 234 870 200Q870 194 870 166Q870 139 880 92Q890 46 890 -2Q869 -3 856 -7Q843 -11 834 -11Q825 -11 818 -3Q812 5 804 28Q803 34 800 62Q797 90 792 130Q788 170 782 217Q777 265 772 311Q761 411 755 458Q755 482 790 482Q811 482 823 464Q835 447 842 424Q849 402 851 380Q854 358 856 349Q988 467 1184 467Q1206 467 1230 466Q1236 467 1245 467Q1254 467 1263 455Q1274 441 1274 421Q1274 371 1246 365ZM1524 70Q1612 70 1789 150Q1800 150 1807 142Q1814 135 1814 125Q1774 57 1661 19Q1548 -19 1450 6Q1339 35 1315 131Q1313 150 1313 182Q1313 214 1329 266Q1346 319 1386 366Q1426 413 1480 440Q1534 467 1595 467Q1653 467 1725 427Q1759 408 1779 384Q1799 360 1799 335Q1799 328 1798 321Q1796 260 1739 244Q1714 237 1681 237L1537 243Q1465 243 1427 212Q1405 195 1396 161Q1421 70 1524 70ZM1702 379Q1680 395 1656 402Q1632 409 1616 409Q1600 409 1564 398Q1528 388 1500 375Q1431 343 1431 308Q1511 301 1551 301Q1662 301 1701 320Q1725 330 1725 345Q1725 363 1702 379ZM2254 276Q2232 203 2217 141Q2203 79 2189 38Q2167 -21 2139 -21Q2124 -21 2105 -7Q2059 42 1975 210Q1893 374 1893 415Q1893 433 1904 437Q1915 442 1929 438Q1963 428 1977 407Q1984 397 1994 372L2019 310Q2061 205 2102 118Q2124 152 2144 206L2175 292Q2215 405 2247 407Q2272 423 2397 230Q2450 148 2463 132Q2472 132 2484 192Q2497 252 2506 293Q2516 335 2530 371Q2563 455 2606 455Q2620 455 2625 445Q2631 436 2631 430Q2631 424 2631 421Q2619 387 2606 343Q2593 300 2578 254Q2564 209 2549 164Q2535 120 2521 84Q2488 6 2466 0Q2449 -8 2411 39Q2394 61 2375 91Q2356 121 2335 153Q2284 233 2254 276ZM2755 437L2753 686L2833 683L2824 97L3351 82Q3367 77 3367 65Q3367 53 3352 40Q3323 14 3286 14Q3277 14 3267 16L2730 21Q2755 114 2755 437ZM3804 166Q3729 48 3604 20Q3575 14 3551 14Q3528 14 3512 14Q3497 15 3478 19Q3459 23 3443 32Q3406 53 3406 91Q3402 109 3402 131Q3402 154 3412 191Q3422 228 3448 271Q3475 314 3513 350Q3592 426 3684 448Q3711 454 3733 454Q3756 454 3774 451Q3832 451 3852 372Q3865 322 3867 232Q3870 143 3872 94Q3875 46 3885 6L3826 6Q3822 33 3820 54Q3818 75 3816 93Q3811 135 3804 166ZM3800 321Q3800 379 3743 379Q3736 380 3729 380Q3656 380 3575 310Q3537 278 3510 238Q3470 181 3470 136Q3470 77 3538 66Q3628 68 3710 148Q3745 183 3768 224Q3800 279 3800 321ZM3936 309L3938 580L3935 709Q3935 725 3946 734Q3957 743 3973 743Q3989 743 4002 734Q4015 726 4012 711L4019 279Q4082 363 4189 420Q4278 468 4345 468Q4404 468 4436 430Q4460 400 4460 350Q4460 301 4441 264Q4423 228 4393 194Q4363 161 4324 132Q4285 103 4245 80Q4169 36 4095 7Q4089 9 4075 8Q4061 7 4041 7Q3987 7 3946 20Q3936 115 3936 309ZM4022 89Q4022 78 4042 78Q4063 78 4093 86Q4123 94 4165 113Q4208 133 4251 164Q4351 235 4402 331Q4389 388 4324 388Q4265 388 4191 344Q4086 281 4041 188Q4022 151 4022 113Q4022 103 4022 97Q4022 91 4022 89Z" fill="#0560af" style=""></path></g></g></g></svg>